<svg width="115" height="27" viewBox="0 0 115 27" fill="none" xmlns="http://www.w3.org/2000/svg">
<path d="M5.74156 8.28803C5.74156 8.62435 5.59742 8.91263 5.32516 9.15287C5.05289 9.3931 4.69254 9.51321 4.26013 9.51321C3.98786 9.51321 3.7156 9.47318 3.44333 9.38509C3.17107 9.30501 2.93885 9.20892 2.76268 9.09681C2.5785 8.9847 2.40233 8.85658 2.24217 8.71244C2.08202 8.5683 1.96991 8.47221 1.91385 8.41615C1.8578 8.3681 1.81776 8.32006 1.80174 8.28803L0 10.1699L0.176171 10.37C0.296287 10.5142 0.488473 10.6743 0.752729 10.8665C1.00898 11.0587 1.31327 11.2509 1.6496 11.4431C1.98592 11.6353 2.41834 11.8034 2.94685 11.9396C3.47537 12.0757 4.01989 12.1398 4.58844 12.1398C5.97379 12.1398 7.08686 11.7794 7.92768 11.0507C8.76048 10.33 9.18489 9.43314 9.18489 8.3681C9.18489 7.82358 9.08079 7.34311 8.88861 6.92671C8.68841 6.51031 8.43217 6.18199 8.11986 5.93375C7.80756 5.69351 7.46323 5.4773 7.07886 5.30113C6.69448 5.12496 6.31812 4.98082 5.94175 4.86872C5.56539 4.75661 5.22106 4.6445 4.90875 4.5404C4.59645 4.4363 4.3402 4.30817 4.14802 4.15602C3.94782 4.00388 3.85173 3.8197 3.85173 3.6115C3.85173 3.35525 3.96384 3.12302 4.20407 2.92283C4.4363 2.73064 4.73258 2.62654 5.08492 2.62654C5.42125 2.62654 5.74957 2.71463 6.07789 2.88279C6.4062 3.05896 6.62241 3.19509 6.72651 3.29119C6.83062 3.38728 6.91069 3.46736 6.96675 3.53142L8.7765 1.64159L8.62435 1.48143C8.53627 1.36132 8.38412 1.22519 8.1599 1.06503C7.93569 0.904876 7.67143 0.744721 7.37514 0.584566C7.07886 0.424411 6.70249 0.288279 6.23804 0.176171C5.77359 0.064062 5.27711 0 4.75661 0C3.48337 0 2.44237 0.360349 1.62557 1.06503C0.808783 1.76971 0.408396 2.59451 0.408396 3.53142C0.408396 4.07595 0.504489 4.55641 0.704682 4.97282C0.896869 5.38922 1.15312 5.72555 1.46542 5.96578C1.77772 6.21402 2.12206 6.42222 2.49842 6.59839C2.87478 6.77456 3.25115 6.92671 3.63552 7.03882C4.01989 7.15093 4.36423 7.26303 4.67653 7.35913C4.98883 7.46323 5.24508 7.59135 5.44527 7.7435C5.63746 7.90365 5.74156 8.07983 5.74156 8.28803Z" fill="white"/>
<path d="M17.1328 0.328318L14.8425 4.75661L12.5443 0.328318H9.18105L13.281 7.71147V11.8114H16.396V7.71147L20.496 0.328318H17.1328Z" fill="white"/>
<path d="M29.2767 0.328318V6.72651L24.3599 0.328318H21.6533V11.8114H24.7683V5.41324L29.7011 11.8114H32.3917V0.328318H29.2767Z" fill="white"/>
<path d="M37.9773 9.1849V7.223H42.4055V4.75661H37.9773V2.95486H43.7188V0.328318H34.8622V11.8114H43.879V9.1849H37.9773Z" fill="white"/>
<path d="M45.6849 11.8114H48.7999V8.19994H50.4415L52.4114 11.8114H55.6866L53.3083 7.63139L53.5245 7.51127C53.6526 7.44721 53.8128 7.3351 54.0049 7.15893C54.1971 6.98276 54.3893 6.77456 54.5815 6.52632C54.7737 6.27808 54.9338 5.95777 55.07 5.55738C55.2061 5.15699 55.2782 4.73258 55.2782 4.26813C55.2782 3.15506 54.8778 2.21815 54.093 1.46542C53.3083 0.71269 52.3073 0.336326 51.0981 0.336326H45.6849V11.8114ZM52.1632 4.26813C52.1632 4.59645 52.043 4.86872 51.8188 5.09293C51.5866 5.30914 51.2903 5.42125 50.93 5.42125H48.7999V3.13103H50.93C51.2903 3.13103 51.5866 3.23513 51.8188 3.45134C52.043 3.66755 52.1632 3.93982 52.1632 4.26813Z" fill="white"/>
<path d="M63.0659 12.1398C63.6745 12.1398 64.275 12.0597 64.8516 11.8995C65.4282 11.7394 65.9006 11.5552 66.269 11.355C66.6373 11.1468 66.9817 10.9146 67.302 10.6503C67.6223 10.3861 67.8305 10.2019 67.9346 10.0978C68.0307 9.99368 68.1028 9.9136 68.1508 9.84954V5.42125H63.226V7.39116H65.0278V8.62435L64.8356 8.80052C64.6995 8.92865 64.4672 9.05677 64.1389 9.17689C63.8186 9.297 63.4583 9.36107 63.0579 9.36107C62.121 9.36107 61.3362 9.04876 60.7116 8.42416C60.087 7.79955 59.7747 7.01479 59.7747 6.07789C59.7747 5.13297 60.087 4.35622 60.7116 3.73161C61.3362 3.10701 62.121 2.80271 63.0579 2.80271C63.4102 2.80271 63.7545 2.85076 64.0909 2.95486C64.4272 3.05896 64.6995 3.17908 64.9077 3.3072C65.1159 3.43533 65.3161 3.58747 65.5082 3.75564C65.7004 3.9238 65.8286 4.04392 65.8766 4.10798C65.9327 4.17204 65.9727 4.2281 66.0047 4.26813L67.8945 2.29823L67.7104 2.066C67.5983 1.90585 67.4061 1.71366 67.1338 1.48944C66.8615 1.26523 66.5492 1.04101 66.1889 0.816791C65.8286 0.592574 65.3721 0.400388 64.8116 0.240233C64.259 0.0800775 63.6745 0 63.0579 0C61.2801 0 59.7667 0.600582 58.5255 1.79374C57.2843 2.98689 56.6597 4.41227 56.6597 6.06988C56.6597 7.73549 57.2843 9.16087 58.5255 10.354C59.7667 11.5472 61.2801 12.1398 63.0659 12.1398Z" fill="white"/>
<path d="M76.7393 0.328318L74.4491 4.75661L72.1508 0.328318H68.7876L72.8875 7.71147V11.8114H76.0026V7.71147L80.1025 0.328318H76.7393Z" fill="white"/>
<path d="M3.27934 20.2844C3.27934 19.3475 3.59164 18.5708 4.21624 17.9461C4.84085 17.3215 5.6176 17.0092 6.56252 17.0092C6.90685 17.0092 7.25118 17.0653 7.58751 17.1694C7.92383 17.2735 8.1961 17.3936 8.4043 17.5217C8.6125 17.6499 8.8127 17.802 9.00488 17.9702C9.19707 18.1383 9.32519 18.2585 9.37324 18.3225C9.42929 18.3866 9.46933 18.4426 9.50136 18.4827L11.3912 16.5128L11.207 16.2805C11.0949 16.1204 10.9027 15.9282 10.6305 15.704C10.3582 15.4798 10.0459 15.2555 9.68554 15.0313C9.32519 14.8071 8.86875 14.6149 8.30821 14.4548C7.75567 14.2946 7.1711 14.2145 6.55451 14.2145C4.77679 14.2145 3.26332 14.8151 2.02212 16.0083C0.780916 17.2014 0.156311 18.6268 0.156311 20.2844C0.156311 21.95 0.780916 23.3754 2.02212 24.5686C3.26332 25.7617 4.77679 26.3543 6.55451 26.3543C7.17911 26.3543 7.77169 26.2742 8.34825 26.1141C8.9248 25.9539 9.38125 25.7697 9.73359 25.5615C10.0859 25.3613 10.4062 25.1291 10.7105 24.8648C11.0148 24.6006 11.207 24.4164 11.2871 24.3123C11.3672 24.2082 11.4312 24.1201 11.4713 24.0561L9.66952 22.0862L9.32519 22.4545C9.10097 22.7108 8.72461 22.959 8.20411 23.1992C7.69161 23.4475 7.13907 23.5676 6.55451 23.5676C5.6176 23.5676 4.83284 23.2553 4.20824 22.6307C3.58363 22.0061 3.27934 21.2293 3.27934 20.2844Z" fill="white"/>
<path d="M18.7785 21.1092H16.6484L17.7135 17.746L18.7785 21.1092ZM19.5953 23.5676L20.4201 26.026H23.7834L19.4351 14.5429H15.9918L11.6436 26.026H15.0069L15.8236 23.5676H19.5953Z" fill="white"/>
<path d="M33.1326 26.026V23.2393H28.0476V14.5429H24.9326V26.026H33.1326Z" fill="white"/>
<path d="M42.8021 26.026V23.2393H37.7172V14.5429H34.6021V26.026H42.8021Z" fill="white"/>
<path d="M50.0094 20.2844C50.0094 19.3475 50.3217 18.5708 50.9463 17.9461C51.5709 17.3215 52.3477 17.0092 53.2926 17.0092C53.6369 17.0092 53.9812 17.0653 54.3176 17.1694C54.6539 17.2735 54.9262 17.3936 55.1344 17.5217C55.3426 17.6499 55.5428 17.802 55.7349 17.9702C55.9271 18.1383 56.0552 18.2585 56.1033 18.3225C56.1593 18.3866 56.1994 18.4426 56.2314 18.4827L58.1212 16.5128L57.9371 16.2805C57.825 16.1204 57.6328 15.9282 57.3605 15.704C57.0882 15.4798 56.7759 15.2555 56.4156 15.0313C56.0552 14.8071 55.5988 14.6149 55.0383 14.4548C54.4857 14.2946 53.9012 14.2145 53.2846 14.2145C51.5068 14.2145 49.9934 14.8151 48.7522 16.0083C47.511 17.2014 46.8864 18.6268 46.8864 20.2844C46.8864 21.95 47.511 23.3754 48.7522 24.5686C49.9934 25.7617 51.5068 26.3543 53.2846 26.3543C53.9092 26.3543 54.5017 26.2742 55.0783 26.1141C55.6549 25.9539 56.1113 25.7697 56.4636 25.5615C56.816 25.3613 57.1363 25.1291 57.4406 24.8648C57.7449 24.6006 57.9371 24.4164 58.0171 24.3123C58.0972 24.2082 58.1613 24.1201 58.2013 24.0561L56.3996 22.0862L56.0552 22.4545C55.831 22.7108 55.4547 22.959 54.9342 23.1992C54.4217 23.4475 53.8691 23.5676 53.2846 23.5676C52.3477 23.5676 51.5629 23.2553 50.9383 22.6307C50.3137 22.0061 50.0094 21.2293 50.0094 20.2844Z" fill="white"/>
<path d="M62.8019 23.3994V21.4375H67.2302V18.9711H62.8019V17.1694H68.5435V14.5429H59.6869V26.026H68.7037V23.3994H62.8019Z" fill="white"/>
<path d="M78.1329 14.5429V20.941L73.2162 14.5429H70.5096V26.026H73.6246V19.6278L78.5574 26.026H81.248V14.5429H78.1329Z" fill="white"/>
<path d="M82.7336 14.5429V17.3376H85.9287V26.026H89.0437V17.3376H92.2468V14.5429H82.7336Z" fill="white"/>
<path d="M96.8394 23.3994V21.4375H101.268V18.9711H96.8394V17.1694H102.581V14.5429H93.7244V26.026H102.741V23.3994H96.8394Z" fill="white"/>
<path d="M104.547 26.026H107.662V22.4145H109.304L111.274 26.026H114.549L112.17 21.8459L112.387 21.7258C112.515 21.6617 112.675 21.5496 112.867 21.3735C113.059 21.1973 113.251 20.9891 113.444 20.7409C113.636 20.4926 113.796 20.1723 113.932 19.7719C114.068 19.3715 114.14 18.9471 114.14 18.4827C114.14 17.3696 113.74 16.4327 112.955 15.68C112.17 14.9272 111.169 14.5509 109.96 14.5509H104.547V26.026ZM111.025 18.4827C111.025 18.811 110.905 19.0832 110.681 19.3075C110.449 19.5237 110.152 19.6358 109.792 19.6358H107.662V17.3456H109.792C110.152 17.3456 110.449 17.4497 110.681 17.6659C110.905 17.8821 111.025 18.1543 111.025 18.4827Z" fill="white"/>
</svg>
